M48
INCH,LZ
;FILE_FORMAT=2:4
;TYPE=PLATED
;Layer: PTH_Through
;EasyEDA v6.5.20, 2022-10-25 19:45:01
;d7509c23e70a4d299dd340956325a71c,9a860c5992af436183867cf7ac43f068,10
;Gerber Generator version 0.2
;Holesize 1 = 0.0350 inch
T01C0.0350
;Holesize 2 = 0.0360 inch
T02C0.0360
;Holesize 3 = 0.0470 inch
T03C0.0470
;Holesize 4 = 0.0550 inch
T04C0.0550
%
G05
G90
T01
X010100Y026000
X007100Y026000
X007100Y022000
X010100Y022000
X007100Y023350
X010100Y023350
X007100Y024650
X010100Y024650
X004800Y015850
T02
X005850Y022100
X005500Y024400
X005600Y005450
X006600Y008450
X011950Y021900
X007600Y020400
X006650Y032150
X005950Y028350
X006050Y025650
X006700Y019000
X005800Y013750
X016600Y002650
X004450Y009850
X023150Y006450
X023150Y004450
X022350Y017300
X021750Y014350
X021750Y018650
X020750Y020150
X020500Y011350
T03
X009150Y018353
X019150Y018350
X009150Y017350
X019150Y017350
X009150Y016350
X019150Y016350
X009150Y015350
X019150Y015350
X009150Y014350
X019150Y014350
X009150Y013350
X019150Y013350
X009150Y012350
X019150Y012350
X009150Y011350
X019150Y011350
X009150Y010350
X019150Y010350
X009150Y009350
X019150Y009350
X009150Y008350
X019150Y008350
X009150Y007350
X019150Y007350
X009150Y006350
X019150Y006350
X009150Y005350
X019150Y005350
X009150Y004350
X019150Y004350
T04
X002500Y037530
X002500Y035570
X002500Y033230
X002500Y031270
X002500Y028880
X002500Y026920
X002500Y024480
X002500Y022520
X002500Y007430
X002500Y005470
X025050Y027070
X025050Y029030
X025050Y022920
X025050Y024880
X002500Y003130
X002500Y001170
X002500Y018150
X002500Y016180
X002500Y020120
X002500Y011800
X002500Y009830
X002500Y013770
X025050Y033250
X025050Y035220
X025050Y031280
X025050Y018750
X025050Y020720
X025050Y016780
X025050Y012600
X025050Y014570
X025050Y010630
X025050Y006450
X025050Y008420
X025050Y004480
M30
