G04 Layer: BottomLayer*
G04 EasyEDA v6.5.20, 2022-10-25 19:45:01*
G04 d7509c23e70a4d299dd340956325a71c,9a860c5992af436183867cf7ac43f068,10*
G04 Gerber Generator version 0.2*
G04 Scale: 100 percent, Rotated: No, Reflected: No *
G04 Dimensions in inches *
G04 leading zeros omitted , absolute positions ,3 integer and 6 decimal *
%FSLAX36Y36*%
%MOIN*%

%ADD10C,0.0200*%
%ADD11R,0.1687X0.0937*%
%ADD12C,0.0740*%
%ADD13R,0.1083X0.0600*%
%ADD14C,0.0800*%

%LPD*%
D10*
X2050000Y1135000D02*
G01*
X1915000Y1135000D01*
X2235000Y1730000D02*
G01*
X2230000Y1735000D01*
X1915000Y1735000D01*
X2175000Y1435000D02*
G01*
X1915000Y1435000D01*
X2505000Y448000D02*
G01*
X2501999Y445000D01*
X2315000Y445000D01*
X2505000Y645000D02*
G01*
X2315000Y645000D01*
X1915000Y535000D02*
G01*
X2030000Y535000D01*
X2336999Y841999D01*
X2505000Y841999D01*
X710000Y2465000D02*
G01*
X496999Y2251999D01*
X250000Y2251999D01*
X710000Y2335000D02*
G01*
X585000Y2210000D01*
X1010000Y2200000D02*
G01*
X1010000Y2335000D01*
X1010000Y2335000D02*
G01*
X1010000Y2465000D01*
X1010000Y2465000D02*
G01*
X1010000Y2600000D01*
X250000Y743000D02*
G01*
X561999Y743000D01*
X770000Y535000D01*
X915000Y535000D01*
X250000Y546999D02*
G01*
X251999Y545000D01*
X560000Y545000D01*
X660000Y845000D02*
G01*
X750000Y935000D01*
X915000Y935000D01*
X250000Y1180000D02*
G01*
X515000Y1180000D01*
X560000Y1135000D01*
X915000Y1135000D01*
X250000Y1376999D02*
G01*
X248000Y1375000D01*
X215000Y1375000D01*
X75000Y1515000D01*
X75000Y1875000D01*
X211999Y2011999D01*
X250000Y2011999D01*
X250000Y2448000D02*
G01*
X213000Y2448000D01*
X75000Y2310000D01*
X75000Y2150000D01*
X213000Y2011999D01*
X250000Y2011999D01*
X250000Y2888000D02*
G01*
X213000Y2888000D01*
X75000Y2750000D01*
X75000Y2585000D01*
X211999Y2448000D01*
X250000Y2448000D01*
X250000Y3323000D02*
G01*
X213000Y3323000D01*
X75000Y3185000D01*
X75000Y3025000D01*
X211999Y2888000D01*
X250000Y2888000D01*
X250000Y3753000D02*
G01*
X213000Y3753000D01*
X75000Y3615000D01*
X75000Y3460000D01*
X211999Y3323000D01*
X250000Y3323000D01*
X710000Y2465000D02*
G01*
X760000Y2465000D01*
X860000Y2365000D01*
X860000Y2240000D01*
X1205000Y1895000D01*
X1205000Y1615000D01*
X1025000Y1435000D01*
X915000Y1435000D01*
X250000Y3126999D02*
G01*
X251999Y3125000D01*
X745000Y3125000D01*
X1195000Y2675000D01*
X1195000Y2190000D01*
X760000Y2040000D02*
G01*
X795000Y2075000D01*
X795000Y2115000D01*
X710000Y2200000D01*
X595000Y2835000D02*
G01*
X710000Y2720000D01*
X710000Y2600000D01*
X710000Y2600000D02*
G01*
X675000Y2565000D01*
X605000Y2565000D01*
X670000Y1900000D02*
G01*
X835000Y1735000D01*
X915000Y1735000D01*
X250000Y313000D02*
G01*
X211999Y313000D01*
X80000Y445000D01*
X80000Y610000D01*
X213000Y743000D01*
X250000Y743000D01*
X250000Y1376999D02*
G01*
X251999Y1375000D01*
X580000Y1375000D01*
X1660000Y265000D02*
G01*
X1830000Y435000D01*
X1915000Y435000D01*
X250000Y983000D02*
G01*
X251999Y985000D01*
X445000Y985000D01*
X710000Y2200000D02*
G01*
X515000Y2005000D01*
X515000Y1910000D01*
X790000Y1635000D01*
X915000Y1635000D01*
X480000Y1585000D02*
G01*
X446999Y1618000D01*
X250000Y1618000D01*
X915000Y1235000D02*
G01*
X850000Y1235000D01*
X560000Y1525000D01*
X560000Y1680000D01*
X425000Y1815000D01*
X250000Y1815000D01*
X2505000Y2706999D02*
G01*
X2396999Y2706999D01*
X2150000Y2460000D01*
X2150000Y2075000D01*
X2075000Y2015000D01*
X2195000Y1865000D02*
G01*
X2175000Y1865000D01*
X2505000Y2291999D02*
G01*
X2351999Y2291999D01*
X2240000Y2180000D01*
X2240000Y1930000D01*
X2175000Y1865000D01*
X1915000Y1535000D02*
G01*
X2195000Y1535000D01*
X2338000Y1678000D01*
X2505000Y1678000D01*
X2505000Y1456999D02*
G01*
X2541999Y1456999D01*
X2680000Y1595000D01*
X2680000Y1935000D01*
X2543000Y2071999D01*
X2505000Y2071999D01*
X2505000Y3521999D02*
G01*
X2376999Y3521999D01*
X1680000Y2825000D01*
X1680000Y1365000D01*
X1810000Y1235000D01*
X1915000Y1235000D01*
X2505000Y3325000D02*
G01*
X2385000Y3325000D01*
X1725000Y2665000D01*
X1725000Y1425000D01*
X1815000Y1335000D01*
X1915000Y1335000D01*
X1010000Y2200000D02*
G01*
X1010000Y2140000D01*
X1240000Y1910000D01*
X1240000Y730000D01*
X1045000Y535000D01*
X915000Y535000D01*
X2505000Y2071999D02*
G01*
X2541999Y2071999D01*
X2680000Y2210000D01*
X2680000Y2865000D01*
X2641999Y2903000D01*
X2505000Y2903000D01*
X2505000Y841999D02*
G01*
X2541999Y841999D01*
X2675000Y975000D01*
X2675000Y1325000D01*
X2543000Y1456999D01*
X2505000Y1456999D01*
X250000Y983000D02*
G01*
X138000Y983000D01*
X95000Y940000D01*
X95000Y865000D01*
X216999Y743000D01*
X250000Y743000D01*
X250000Y3556999D02*
G01*
X418000Y3556999D01*
X600000Y3375000D01*
X600000Y3270000D01*
X665000Y3215000D01*
X550000Y2440000D02*
G01*
X540000Y2440000D01*
X288000Y2691999D01*
X250000Y2691999D01*
X1915000Y1635000D02*
G01*
X2235000Y1635000D01*
X2315000Y1715000D01*
X2315000Y1805000D01*
X2385000Y1875000D01*
X2505000Y1875000D01*
X2505000Y1260000D02*
G01*
X2375000Y1260000D01*
X2150000Y1035000D01*
X1915000Y1035000D01*
X2505000Y1063000D02*
G01*
X2378000Y1063000D01*
X2250000Y935000D01*
X1915000Y935000D01*
X250000Y116999D02*
G01*
X251999Y115000D01*
X570000Y115000D01*
X890000Y435000D01*
X915000Y435000D01*
X710000Y2335000D02*
G01*
X775000Y2335000D01*
X820000Y2290000D01*
X820000Y2225000D01*
X1170000Y1875000D01*
X1170000Y1635000D01*
X1070000Y1535000D01*
X915000Y1535000D01*
X2505000Y3128000D02*
G01*
X2303000Y3128000D01*
X1765000Y2590000D01*
X1765000Y1985000D01*
X1915000Y1835000D01*
D11*
G01*
X250000Y3753000D03*
G01*
X250000Y3556999D03*
G01*
X250000Y3323000D03*
G01*
X250000Y3126999D03*
G01*
X250000Y2888000D03*
G01*
X250000Y2691999D03*
G01*
X250000Y2448000D03*
G01*
X250000Y2251999D03*
G01*
X250000Y743000D03*
G01*
X250000Y546999D03*
G01*
X2505000Y2706999D03*
G01*
X2505000Y2903000D03*
G01*
X2505000Y2291999D03*
G01*
X2505000Y2488000D03*
G01*
X250000Y313000D03*
G01*
X250000Y116999D03*
G01*
X250000Y1815000D03*
G01*
X250000Y1618000D03*
G01*
X250000Y2011999D03*
G01*
X250000Y1180000D03*
G01*
X250000Y983000D03*
G01*
X250000Y1376999D03*
G01*
X2505000Y3325000D03*
G01*
X2505000Y3521999D03*
G01*
X2505000Y3128000D03*
G01*
X2505000Y1875000D03*
G01*
X2505000Y2071999D03*
G01*
X2505000Y1678000D03*
G01*
X2505000Y1260000D03*
G01*
X2505000Y1456999D03*
G01*
X2505000Y1063000D03*
G01*
X2505000Y645000D03*
G01*
X2505000Y841999D03*
G01*
X2505000Y448000D03*
D12*
G01*
X1010000Y2600000D03*
G01*
X710000Y2600000D03*
G01*
X710000Y2200000D03*
G01*
X1010000Y2200000D03*
G01*
X710000Y2335000D03*
G01*
X1010000Y2335000D03*
G01*
X710000Y2465000D03*
G01*
X1010000Y2465000D03*
D13*
G01*
X915000Y1835250D03*
G01*
X1915000Y1835000D03*
G01*
X915000Y1735000D03*
G01*
X1915000Y1735000D03*
G01*
X915000Y1635000D03*
G01*
X1915000Y1635000D03*
G01*
X915000Y1535000D03*
G01*
X1915000Y1535000D03*
G01*
X915000Y1435000D03*
G01*
X1915000Y1435000D03*
G01*
X915000Y1335000D03*
G01*
X1915000Y1335000D03*
G01*
X915000Y1235000D03*
G01*
X1915000Y1235000D03*
G01*
X915000Y1135000D03*
G01*
X1915000Y1135000D03*
G01*
X915000Y1035000D03*
G01*
X1915000Y1035000D03*
G01*
X915000Y935000D03*
G01*
X1915000Y935000D03*
G01*
X915000Y835000D03*
G01*
X1915000Y835000D03*
G01*
X915000Y735000D03*
G01*
X1915000Y735000D03*
G01*
X915000Y635000D03*
G01*
X1915000Y635000D03*
G01*
X915000Y535000D03*
G01*
X1915000Y535000D03*
G01*
X915000Y435000D03*
G01*
X1915000Y435000D03*
D14*
G01*
X585000Y2210000D03*
G01*
X550000Y2440000D03*
G01*
X560000Y545000D03*
G01*
X660000Y845000D03*
G01*
X1195000Y2190000D03*
G01*
X760000Y2040000D03*
G01*
X665000Y3215000D03*
G01*
X595000Y2835000D03*
G01*
X605000Y2565000D03*
G01*
X670000Y1900000D03*
G01*
X580000Y1375000D03*
G01*
X1660000Y265000D03*
G01*
X445000Y985000D03*
G01*
X480000Y1585000D03*
G01*
X2315000Y645000D03*
G01*
X2315000Y445000D03*
G01*
X2235000Y1730000D03*
G01*
X2175000Y1435000D03*
G01*
X2175000Y1865000D03*
G01*
X2075000Y2015000D03*
G01*
X2050000Y1135000D03*
M02*
