G04 Layer: TopLayer*
G04 EasyEDA v6.5.20, 2022-10-25 19:45:01*
G04 d7509c23e70a4d299dd340956325a71c,9a860c5992af436183867cf7ac43f068,10*
G04 Gerber Generator version 0.2*
G04 Scale: 100 percent, Rotated: No, Reflected: No *
G04 Dimensions in inches *
G04 leading zeros omitted , absolute positions ,3 integer and 6 decimal *
%FSLAX36Y36*%
%MOIN*%

%ADD10C,0.0197*%
%ADD11C,0.0200*%
%ADD12R,0.1687X0.0937*%
%ADD13C,0.0740*%
%ADD14R,0.1083X0.0600*%
%ADD15C,0.0800*%

%LPD*%
D10*
X949498Y3239200D02*
G01*
X949498Y3126399D01*
X911899Y3239200D02*
G01*
X987098Y3239200D01*
X1065398Y3239200D02*
G01*
X1022498Y3126399D01*
X1065398Y3239200D02*
G01*
X1108398Y3126399D01*
X1038599Y3164000D02*
G01*
X1092299Y3164000D01*
X1175999Y3239200D02*
G01*
X1165299Y3233800D01*
X1154598Y3223099D01*
X1149198Y3212300D01*
X1143798Y3196199D01*
X1143798Y3169400D01*
X1149198Y3153299D01*
X1154598Y3142500D01*
X1165299Y3131799D01*
X1175999Y3126399D01*
X1197498Y3126399D01*
X1208199Y3131799D01*
X1218999Y3142500D01*
X1224399Y3153299D01*
X1229699Y3169400D01*
X1229699Y3196199D01*
X1224399Y3212300D01*
X1218999Y3223099D01*
X1208199Y3233800D01*
X1197498Y3239200D01*
X1175999Y3239200D01*
X1192098Y3147899D02*
G01*
X1224399Y3115700D01*
X1347799Y3239200D02*
G01*
X1347799Y3126399D01*
X1347799Y3239200D02*
G01*
X1396198Y3239200D01*
X1412299Y3233800D01*
X1417599Y3228400D01*
X1422998Y3217700D01*
X1422998Y3206999D01*
X1417599Y3196199D01*
X1412299Y3190900D01*
X1396198Y3185500D01*
X1347799Y3185500D02*
G01*
X1396198Y3185500D01*
X1412299Y3180100D01*
X1417599Y3174800D01*
X1422998Y3164000D01*
X1422998Y3147899D01*
X1417599Y3137199D01*
X1412299Y3131799D01*
X1396198Y3126399D01*
X1347799Y3126399D01*
X1501399Y3239200D02*
G01*
X1458398Y3126399D01*
X1501399Y3239200D02*
G01*
X1544299Y3126399D01*
X1474498Y3164000D02*
G01*
X1528199Y3164000D01*
X1579799Y3239200D02*
G01*
X1579799Y3126399D01*
X1579799Y3126399D02*
G01*
X1644198Y3126399D01*
X1722599Y3239200D02*
G01*
X1679598Y3126399D01*
X1722599Y3239200D02*
G01*
X1765498Y3126399D01*
X1695699Y3164000D02*
G01*
X1749399Y3164000D01*
X1800898Y3239200D02*
G01*
X1800898Y3126399D01*
X1800898Y3239200D02*
G01*
X1843899Y3126399D01*
X1886799Y3239200D02*
G01*
X1843899Y3126399D01*
X1886799Y3239200D02*
G01*
X1886799Y3126399D01*
X950500Y3047300D02*
G01*
X945200Y3058099D01*
X934399Y3068800D01*
X923699Y3074200D01*
X902200Y3074200D01*
X891499Y3068800D01*
X880699Y3058099D01*
X875399Y3047300D01*
X870000Y3031199D01*
X870000Y3004400D01*
X875399Y2988299D01*
X880699Y2977500D01*
X891499Y2966799D01*
X902200Y2961399D01*
X923699Y2961399D01*
X934399Y2966799D01*
X945200Y2977500D01*
X950500Y2988299D01*
X1028900Y3074200D02*
G01*
X986000Y2961399D01*
X1028900Y3074200D02*
G01*
X1071899Y2961399D01*
X1002100Y2999000D02*
G01*
X1055799Y2999000D01*
X1161000Y3074200D02*
G01*
X1161000Y2988299D01*
X1155600Y2972199D01*
X1150200Y2966799D01*
X1139499Y2961399D01*
X1128800Y2961399D01*
X1118000Y2966799D01*
X1112700Y2972199D01*
X1107299Y2988299D01*
X1107299Y2999000D01*
X1239399Y3074200D02*
G01*
X1196400Y2961399D01*
X1239399Y3074200D02*
G01*
X1282299Y2961399D01*
X1212500Y2999000D02*
G01*
X1266199Y2999000D01*
X1400399Y3074200D02*
G01*
X1400399Y2961399D01*
X1400399Y3074200D02*
G01*
X1475600Y2961399D01*
X1475600Y3074200D02*
G01*
X1475600Y2961399D01*
X1511000Y3074200D02*
G01*
X1511000Y2961399D01*
X1511000Y3074200D02*
G01*
X1580799Y3074200D01*
X1511000Y3020500D02*
G01*
X1553999Y3020500D01*
X1511000Y2961399D02*
G01*
X1580799Y2961399D01*
X1696800Y3047300D02*
G01*
X1691400Y3058099D01*
X1680699Y3068800D01*
X1669899Y3074200D01*
X1648500Y3074200D01*
X1637700Y3068800D01*
X1626999Y3058099D01*
X1621599Y3047300D01*
X1616199Y3031199D01*
X1616199Y3004400D01*
X1621599Y2988299D01*
X1626999Y2977500D01*
X1637700Y2966799D01*
X1648500Y2961399D01*
X1669899Y2961399D01*
X1680699Y2966799D01*
X1691400Y2977500D01*
X1696800Y2988299D01*
X1696800Y3004400D01*
X1669899Y3004400D02*
G01*
X1696800Y3004400D01*
X1732200Y3074200D02*
G01*
X1732200Y2961399D01*
X1732200Y3074200D02*
G01*
X1780500Y3074200D01*
X1796599Y3068800D01*
X1801999Y3063400D01*
X1807399Y3052700D01*
X1807399Y3041999D01*
X1801999Y3031199D01*
X1796599Y3025900D01*
X1780500Y3020500D01*
X1732200Y3020500D01*
X1769799Y3020500D02*
G01*
X1807399Y2961399D01*
X1885699Y3074200D02*
G01*
X1842799Y2961399D01*
X1885699Y3074200D02*
G01*
X1928699Y2961399D01*
X1858900Y2999000D02*
G01*
X1912600Y2999000D01*
D11*
X2315000Y645000D02*
G01*
X2175000Y785000D01*
X2175000Y1435000D01*
X585000Y2210000D02*
G01*
X550000Y2245000D01*
X550000Y2440000D01*
X560000Y545000D02*
G01*
X660000Y645000D01*
X660000Y845000D01*
X1195000Y2190000D02*
G01*
X1045000Y2040000D01*
X760000Y2040000D01*
X665000Y3215000D02*
G01*
X595000Y3145000D01*
X595000Y2835000D01*
X605000Y2565000D02*
G01*
X560000Y2565000D01*
X465000Y2470000D01*
X465000Y2105000D01*
X670000Y1900000D01*
X580000Y1375000D02*
G01*
X745000Y1210000D01*
X745000Y325000D01*
X805000Y265000D01*
X1660000Y265000D01*
X480000Y1585000D02*
G01*
X515000Y1550000D01*
X515000Y1065000D01*
X445000Y995000D01*
X445000Y985000D01*
X1915000Y435000D02*
G01*
X1970000Y435000D01*
X2110000Y575000D01*
X2110000Y1035000D01*
X2125000Y1050000D01*
X2125000Y1235000D01*
X2100000Y1260000D01*
X2100000Y1340000D01*
X2110000Y1800000D01*
X2175000Y1865000D01*
X2075000Y2015000D02*
G01*
X2030000Y1970000D01*
X2030000Y1135000D01*
X2050000Y1135000D01*
X2315000Y445000D02*
G01*
X2380000Y510000D01*
X2380000Y700000D01*
X2235000Y845000D01*
X2235000Y1325000D01*
X2275000Y1365000D01*
X2275000Y1690000D01*
X2235000Y1730000D01*
D12*
G01*
X250000Y3753000D03*
G01*
X250000Y3556999D03*
G01*
X250000Y3323000D03*
G01*
X250000Y3126999D03*
G01*
X250000Y2888000D03*
G01*
X250000Y2691999D03*
G01*
X250000Y2448000D03*
G01*
X250000Y2251999D03*
G01*
X250000Y743000D03*
G01*
X250000Y546999D03*
G01*
X2505000Y2706999D03*
G01*
X2505000Y2903000D03*
G01*
X2505000Y2291999D03*
G01*
X2505000Y2488000D03*
G01*
X250000Y313000D03*
G01*
X250000Y116999D03*
G01*
X250000Y1815000D03*
G01*
X250000Y1618000D03*
G01*
X250000Y2011999D03*
G01*
X250000Y1180000D03*
G01*
X250000Y983000D03*
G01*
X250000Y1376999D03*
G01*
X2505000Y3325000D03*
G01*
X2505000Y3521999D03*
G01*
X2505000Y3128000D03*
G01*
X2505000Y1875000D03*
G01*
X2505000Y2071999D03*
G01*
X2505000Y1678000D03*
G01*
X2505000Y1260000D03*
G01*
X2505000Y1456999D03*
G01*
X2505000Y1063000D03*
G01*
X2505000Y645000D03*
G01*
X2505000Y841999D03*
G01*
X2505000Y448000D03*
D13*
G01*
X1010000Y2600000D03*
G01*
X710000Y2600000D03*
G01*
X710000Y2200000D03*
G01*
X1010000Y2200000D03*
G01*
X710000Y2335000D03*
G01*
X1010000Y2335000D03*
G01*
X710000Y2465000D03*
G01*
X1010000Y2465000D03*
D14*
G01*
X915000Y1835250D03*
G01*
X1915000Y1835000D03*
G01*
X915000Y1735000D03*
G01*
X1915000Y1735000D03*
G01*
X915000Y1635000D03*
G01*
X1915000Y1635000D03*
G01*
X915000Y1535000D03*
G01*
X1915000Y1535000D03*
G01*
X915000Y1435000D03*
G01*
X1915000Y1435000D03*
G01*
X915000Y1335000D03*
G01*
X1915000Y1335000D03*
G01*
X915000Y1235000D03*
G01*
X1915000Y1235000D03*
G01*
X915000Y1135000D03*
G01*
X1915000Y1135000D03*
G01*
X915000Y1035000D03*
G01*
X1915000Y1035000D03*
G01*
X915000Y935000D03*
G01*
X1915000Y935000D03*
G01*
X915000Y835000D03*
G01*
X1915000Y835000D03*
G01*
X915000Y735000D03*
G01*
X1915000Y735000D03*
G01*
X915000Y635000D03*
G01*
X1915000Y635000D03*
G01*
X915000Y535000D03*
G01*
X1915000Y535000D03*
G01*
X915000Y435000D03*
G01*
X1915000Y435000D03*
D15*
G01*
X585000Y2210000D03*
G01*
X550000Y2440000D03*
G01*
X560000Y545000D03*
G01*
X660000Y845000D03*
G01*
X1195000Y2190000D03*
G01*
X760000Y2040000D03*
G01*
X665000Y3215000D03*
G01*
X595000Y2835000D03*
G01*
X605000Y2565000D03*
G01*
X670000Y1900000D03*
G01*
X580000Y1375000D03*
G01*
X1660000Y265000D03*
G01*
X445000Y985000D03*
G01*
X480000Y1585000D03*
G01*
X2315000Y645000D03*
G01*
X2315000Y445000D03*
G01*
X2235000Y1730000D03*
G01*
X2175000Y1435000D03*
G01*
X2175000Y1865000D03*
G01*
X2075000Y2015000D03*
G01*
X2050000Y1135000D03*
M02*
