M48
INCH,LZ
;FILE_FORMAT=2:4
;TYPE=PLATED
;Layer: PTH_Through
;EasyEDA v6.5.20, 2022-10-25 19:45:01
;004633172ca84307b0cb9a9d689fa423,9a860c5992af436183867cf7ac43f068,10
;Gerber Generator version 0.2
;Holesize 1 = 0.0360 inch
T01C0.0360
;Holesize 2 = 0.0430 inch
T02C0.0430
;Holesize 3 = 0.0470 inch
T03C0.0470
;Holesize 4 = 0.0510 inch
T04C0.0510
%
G05
G90
T01
X017750Y008200
X017750Y010250
X016900Y012750
X016900Y016350
X017800Y013750
X017800Y015550
X013450Y010750
X003200Y008800
X006650Y005750
X009200Y005100
X003350Y006550
X003400Y003400
X001800Y007250
X002700Y020600
X001900Y015600
X002850Y017050
X003550Y014850
X013900Y016750
X007600Y007050
X013350Y012150
X015650Y020750
X017200Y019150
X007200Y008050
X012600Y012750
X006850Y009100
X011800Y013300
X015550Y023300
X016950Y022200
T02
X013016Y032050
X014000Y032050
X014984Y032050
X018750Y027516
X018750Y028500
X018750Y029484
X018750Y023316
X018750Y024300
X018750Y025284
X018750Y019066
X018750Y020050
X018750Y021034
X018750Y014866
X018750Y015850
X018750Y016834
X018750Y010666
X018750Y011650
X018750Y012634
X018750Y006466
X018750Y007450
X018750Y008434
X001600Y022784
X001600Y021800
X001600Y020816
X001600Y018634
X001600Y017650
X001600Y016666
X001600Y014484
X001600Y013500
X001600Y012516
X001600Y010334
X001600Y009350
X001600Y008366
X001600Y006184
X001600Y005200
X001600Y004216
X011550Y002450
X011550Y009200
X016900Y004850
X016500Y006700
X007850Y010050
X006550Y010700
X003100Y013500
X011650Y024500
X004600Y029250
T03
X005300Y018753
X015300Y018750
X005300Y017750
X015300Y017750
X005300Y016750
X015300Y016750
X005300Y015750
X015300Y015750
X005300Y014750
X015300Y014750
X005300Y013750
X015300Y013750
X005300Y012750
X015300Y012750
X005300Y011750
X015300Y011750
X005300Y010750
X015300Y010750
X005300Y009750
X015300Y009750
X005300Y008750
X015300Y008750
X005300Y007750
X015300Y007750
X005300Y006750
X015300Y006750
X005300Y005750
X015300Y005750
X005300Y004750
X015300Y004750
T04
X007050Y031750
X004550Y031750
M30
