G04 Layer: TopLayer*
G04 EasyEDA v6.5.20, 2022-10-25 19:45:01*
G04 004633172ca84307b0cb9a9d689fa423,9a860c5992af436183867cf7ac43f068,10*
G04 Gerber Generator version 0.2*
G04 Scale: 100 percent, Rotated: No, Reflected: No *
G04 Dimensions in inches *
G04 leading zeros omitted , absolute positions ,3 integer and 6 decimal *
%FSLAX36Y36*%
%MOIN*%

%AMMACRO1*21,1,$1,$2,0,0,$3*%
%ADD10C,0.0100*%
%ADD11C,0.0200*%
%ADD12R,0.0600X0.0750*%
%ADD13C,0.0750*%
%ADD14R,0.0750X0.0600*%
%ADD15MACRO1,0.2126X0.1182X90.0000*%
%ADD16R,0.1083X0.0700*%
%ADD17R,0.0800X0.0800*%
%ADD18C,0.0800*%
%ADD19C,0.0600*%
%ADD20C,0.0153*%

%LPD*%
D10*
X529299Y2165500D02*
G01*
X605599Y2165500D01*
X529299Y2140000D02*
G01*
X529299Y2190900D01*
X529299Y2244000D02*
G01*
X605599Y2214899D01*
X529299Y2244000D02*
G01*
X605599Y2273099D01*
X580199Y2225799D02*
G01*
X580199Y2262199D01*
X529299Y2318899D02*
G01*
X532899Y2311599D01*
X540199Y2304400D01*
X547500Y2300700D01*
X558400Y2297100D01*
X576500Y2297100D01*
X587500Y2300700D01*
X594699Y2304400D01*
X601999Y2311599D01*
X605599Y2318899D01*
X605599Y2333499D01*
X601999Y2340700D01*
X594699Y2348000D01*
X587500Y2351599D01*
X576500Y2355300D01*
X558400Y2355300D01*
X547500Y2351599D01*
X540199Y2348000D01*
X532899Y2340700D01*
X529299Y2333499D01*
X529299Y2318899D01*
X591100Y2329800D02*
G01*
X612899Y2351599D01*
X529299Y2435300D02*
G01*
X605599Y2435300D01*
X529299Y2435300D02*
G01*
X529299Y2468000D01*
X532899Y2478899D01*
X536500Y2482500D01*
X543800Y2486199D01*
X551100Y2486199D01*
X558400Y2482500D01*
X561999Y2478899D01*
X565599Y2468000D01*
X565599Y2435300D02*
G01*
X565599Y2468000D01*
X569299Y2478899D01*
X572899Y2482500D01*
X580199Y2486199D01*
X591100Y2486199D01*
X598400Y2482500D01*
X601999Y2478899D01*
X605599Y2468000D01*
X605599Y2435300D01*
X529299Y2539299D02*
G01*
X605599Y2510200D01*
X529299Y2539299D02*
G01*
X605599Y2568400D01*
X580199Y2521100D02*
G01*
X580199Y2557500D01*
X529299Y2592399D02*
G01*
X605599Y2592399D01*
X605599Y2592399D02*
G01*
X605599Y2635999D01*
X529299Y2689099D02*
G01*
X605599Y2660000D01*
X529299Y2689099D02*
G01*
X605599Y2718200D01*
X580199Y2670900D02*
G01*
X580199Y2707300D01*
X529299Y2742199D02*
G01*
X605599Y2742199D01*
X529299Y2742199D02*
G01*
X605599Y2771300D01*
X529299Y2800399D02*
G01*
X605599Y2771300D01*
X529299Y2800399D02*
G01*
X605599Y2800399D01*
X684299Y2214551D02*
G01*
X760600Y2243651D01*
X684299Y2272750D02*
G01*
X760600Y2243651D01*
X684299Y2318551D02*
G01*
X687899Y2311251D01*
X695199Y2304050D01*
X702500Y2300351D01*
X713400Y2296750D01*
X731500Y2296750D01*
X742500Y2300351D01*
X749699Y2304050D01*
X756999Y2311251D01*
X760600Y2318551D01*
X760600Y2333051D01*
X756999Y2340351D01*
X749699Y2347651D01*
X742500Y2351251D01*
X731500Y2354951D01*
X713400Y2354951D01*
X702500Y2351251D01*
X695199Y2347651D01*
X687899Y2340351D01*
X684299Y2333051D01*
X684299Y2318551D01*
X684299Y2378951D02*
G01*
X760600Y2378951D01*
X760600Y2378951D02*
G01*
X760600Y2422550D01*
X684299Y2475650D02*
G01*
X760600Y2446550D01*
X684299Y2475650D02*
G01*
X760600Y2504751D01*
X735199Y2457451D02*
G01*
X735199Y2493850D01*
X684299Y2528751D02*
G01*
X760600Y2528751D01*
X684299Y2528751D02*
G01*
X760600Y2579650D01*
X684299Y2579650D02*
G01*
X760600Y2579650D01*
X684299Y2629050D02*
G01*
X760600Y2629050D01*
X684299Y2603651D02*
G01*
X684299Y2654551D01*
X684299Y2678551D02*
G01*
X760600Y2678551D01*
X684299Y2678551D02*
G01*
X684299Y2725850D01*
X720599Y2678551D02*
G01*
X720599Y2707651D01*
X760600Y2678551D02*
G01*
X760600Y2725850D01*
D11*
X335000Y655000D02*
G01*
X335000Y345000D01*
X340000Y340000D01*
X665000Y575000D02*
G01*
X855000Y575000D01*
X920000Y510000D01*
X1780000Y1375000D02*
G01*
X1780000Y1555000D01*
X1690000Y1275000D02*
G01*
X1690000Y1635000D01*
X1690000Y485000D02*
G01*
X1650000Y525000D01*
X1650000Y670000D01*
X785000Y1005000D02*
G01*
X720000Y1070000D01*
X655000Y1070000D01*
X180000Y725000D02*
G01*
X185000Y725000D01*
X245000Y785000D01*
X245000Y1530000D01*
X340000Y1625000D01*
X340000Y1990000D01*
X270000Y2060000D01*
X310000Y1350000D02*
G01*
X450000Y1490000D01*
X450000Y1965000D01*
X495000Y2010000D01*
X935000Y2010000D01*
X1370000Y1575000D01*
X1530000Y1575000D01*
X355000Y1485000D02*
G01*
X415000Y1545000D01*
X415000Y1985000D01*
X480000Y2050000D01*
X1015000Y2050000D01*
X1390000Y1675000D01*
X1565000Y2075000D02*
G01*
X1720000Y1920000D01*
X1720000Y1915000D01*
X760000Y705000D02*
G01*
X835000Y705000D01*
X955000Y825000D01*
X955000Y900000D01*
X1215000Y1160000D01*
X1280000Y1160000D01*
X1335000Y1215000D01*
X720000Y805000D02*
G01*
X840000Y805000D01*
X900000Y865000D01*
X900000Y915000D01*
X1260000Y1275000D01*
X685000Y910000D02*
G01*
X825000Y910000D01*
X975000Y1060000D01*
X975000Y1125000D01*
X1180000Y1330000D01*
X1555000Y2330000D02*
G01*
X1595000Y2290000D01*
X1625000Y2290000D01*
X1695000Y2220000D01*
X190000Y1560000D02*
G01*
X285000Y1655000D01*
X285000Y1705000D01*
X1165000Y2450000D02*
G01*
X690000Y2925000D01*
X460000Y2925000D01*
X1345000Y1075000D02*
G01*
X1185000Y1075000D01*
X1045000Y935000D01*
X1045000Y435000D01*
X985000Y375000D01*
X495000Y375000D01*
X405000Y465000D01*
X400000Y800000D01*
X320000Y880000D01*
X1775000Y820000D02*
G01*
X1775000Y1025000D01*
X1155000Y245000D02*
G01*
X1100000Y300000D01*
X1100000Y872500D01*
X1150000Y922500D01*
D12*
G01*
X1301580Y3205000D03*
D13*
G01*
X1400010Y3205000D03*
G01*
X1498419Y3205000D03*
D14*
G01*
X1875000Y2751570D03*
D13*
G01*
X1875000Y2850000D03*
G01*
X1875000Y2948420D03*
D14*
G01*
X1875000Y2331570D03*
D13*
G01*
X1875000Y2430000D03*
G01*
X1875000Y2528420D03*
D14*
G01*
X1875000Y1906570D03*
D13*
G01*
X1875000Y2005000D03*
G01*
X1875000Y2103420D03*
D14*
G01*
X1875000Y1486570D03*
D13*
G01*
X1875000Y1585000D03*
G01*
X1875000Y1683420D03*
D14*
G01*
X1875000Y1066570D03*
D13*
G01*
X1875000Y1165000D03*
G01*
X1875000Y1263420D03*
D14*
G01*
X1875000Y646570D03*
D13*
G01*
X1875000Y745000D03*
G01*
X1875000Y843420D03*
D14*
G01*
X160000Y2278420D03*
D13*
G01*
X160000Y2179989D03*
G01*
X160000Y2081570D03*
D14*
G01*
X160000Y1863420D03*
D13*
G01*
X160000Y1764989D03*
G01*
X160000Y1666570D03*
D14*
G01*
X160000Y1448420D03*
D13*
G01*
X160000Y1349989D03*
G01*
X160000Y1251570D03*
D14*
G01*
X160000Y1033420D03*
D13*
G01*
X160000Y934989D03*
G01*
X160000Y836570D03*
D14*
G01*
X160000Y618420D03*
D13*
G01*
X160000Y519989D03*
G01*
X160000Y421570D03*
D15*
G01*
X704995Y3175000D03*
G01*
X454995Y3175000D03*
D16*
G01*
X530000Y1875250D03*
G01*
X1530000Y1875000D03*
G01*
X530000Y1775000D03*
G01*
X1530000Y1775000D03*
G01*
X530000Y1675000D03*
G01*
X1530000Y1675000D03*
G01*
X530000Y1575000D03*
G01*
X1530000Y1575000D03*
G01*
X530000Y1475000D03*
G01*
X1530000Y1475000D03*
G01*
X530000Y1375000D03*
G01*
X1530000Y1375000D03*
G01*
X530000Y1275000D03*
G01*
X1530000Y1275000D03*
G01*
X530000Y1175000D03*
G01*
X1530000Y1175000D03*
G01*
X530000Y1075000D03*
G01*
X1530000Y1075000D03*
G01*
X530000Y975000D03*
G01*
X1530000Y975000D03*
G01*
X530000Y875000D03*
G01*
X1530000Y875000D03*
G01*
X530000Y775000D03*
G01*
X1530000Y775000D03*
G01*
X530000Y675000D03*
G01*
X1530000Y675000D03*
G01*
X530000Y575000D03*
G01*
X1530000Y575000D03*
G01*
X530000Y475000D03*
G01*
X1530000Y475000D03*
D17*
G01*
X1155000Y245000D03*
G01*
X1155000Y920000D03*
D18*
G01*
X1690000Y485000D03*
G01*
X1650000Y670000D03*
G01*
X785000Y1005000D03*
G01*
X655000Y1070000D03*
G01*
X310000Y1350000D03*
G01*
X1165000Y2450000D03*
G01*
X460000Y2925000D03*
G01*
X1775000Y820000D03*
G01*
X1775000Y1025000D03*
G01*
X1690000Y1275000D03*
G01*
X1690000Y1635000D03*
G01*
X1780000Y1375000D03*
G01*
X1780000Y1555000D03*
G01*
X1345000Y1075000D03*
G01*
X320000Y880000D03*
G01*
X665000Y575000D03*
G01*
X920000Y510000D03*
G01*
X335000Y655000D03*
G01*
X340000Y340000D03*
G01*
X180000Y725000D03*
G01*
X270000Y2060000D03*
G01*
X190000Y1560000D03*
D19*
G01*
X285000Y1705000D03*
D18*
G01*
X355000Y1485000D03*
G01*
X1390000Y1675000D03*
G01*
X760000Y705000D03*
G01*
X1335000Y1215000D03*
G01*
X1565000Y2075000D03*
G01*
X1720000Y1915000D03*
G01*
X720000Y805000D03*
G01*
X1260000Y1275000D03*
G01*
X685000Y910000D03*
G01*
X1180000Y1330000D03*
G01*
X1555000Y2330000D03*
G01*
X1695000Y2220000D03*
M02*
